# xmcd
#
# Track frame offsets: 
#        150
#        11532
#        31207
#        42497
#        55655
#        68255
#        82990
#        94642
#        113667
#        128675
#
# Disc length: 1930 seconds
#
# Revision: 0
# Processed by: cddbd v1.4PL0 Copyright (c) Steve Scherf et al.
# Submitted via: ExactAudioCopy v0.90b4
#
DISCID=6a07880a
DTITLE=Marty Robbins - Marty Robbins All time Greatest Hits
DYEAR=1989
DGENRE=Country
TTITLE0=A White Sport Coat
TTITLE1=El Paso
TTITLE2=Begging to You
TTITLE3=Return to Me
TTITLE4=Tonight Carmen
TTITLE5=Don't Worry
TTITLE6=Ribbon of Darkness
TTITLE7=El Paso City
TTITLE8=I walk Alone
TTITLE9=Adios Amigo
EXTD=
EXTT0=
EXTT1=
EXTT2=
EXTT3=
EXTT4=
EXTT5=
EXTT6=
EXTT7=
EXTT8=
EXTT9=
PLAYORDER=
